<svg width="48" height="48" xmlns="http://www.w3.org/2000/svg" fill="none">
 <defs>
  <clipPath id="clip0_61385:212">
   <rect id="svg_1" x="12" y="14.5712" fill="white" height="19.2" width="24.6857"/>
  </clipPath>
 </defs>
 <g>
  <title>Layer 1</title>
  <rect x="0" y="-1" id="svg_2" fill="#323238" height="48" width="48"/>
  <path fill="white" id="svg_5" d="m31,12l-14,0c-2.761,0 -5,2.239 -5,5l0,14c0,2.761 2.239,5 5,5l14,0c2.762,0 5,-2.239 5,-5l0,-14c0,-2.761 -2.238,-5 -5,-5zm-11,19l-3,0l0,-11l3,0l0,11zm-1.5,-12.268c-0.966,0 -1.75,-0.79 -1.75,-1.764s0.784,-1.764 1.75,-1.764s1.75,0.79 1.75,1.764s-0.783,1.764 -1.75,1.764zm13.5,12.268l-3,0l0,-5.604c0,-3.368 -4,-3.113 -4,0l0,5.604l-3,0l0,-11l3,0l0,1.765c1.396,-2.586 7,-2.777 7,2.476l0,6.759z"/>
 </g>
</svg>